{"title":"Making A Killing - Guns, Greed, and The NRA 1080p WEBRip","uid":15201899,"size":3307979854,"categoryP":"video","categoryS":"hd___movies","magnet":"?xt=urn:btih:97404de872b1e7cf3f175b5fe12ac2871083261f&amp;dn=Making+A+Killing+-+Guns%2C+Greed%2C+and+The+NRA+1080p+WEBRip&amp;tr=udp%3A%2F%2Ftracker.leechers-paradise.org%3A6969&amp;tr=udp%3A%2F%2Fzer0day.ch%3A1337&amp;tr=udp%3A%2F%2Fopen.demonii.com%3A1337&amp;tr=udp%3A%2F%2Ftracker.coppersurfer.tk%3A6969&amp;tr=udp%3A%2F%2Fexodus.desync.com%3A6969","seeders":1,"leechers":0,"uploader":"FactMedia","files":1,"time":1467600842,"description":"Format                                   : MPEG-4\r\nFormat profile                           : Base Media / Version 2\r\nCodec ID                                 : mp42 (mp42/mp41/isom/avc1)\r\nFile size                                : 3.08 GiB\r\nDuration                                 : 1h 43mn\r\nOverall bit rate mode                    : Variable\r\nOverall bit rate                         : 4 252 Kbps\r\nEncoded date                             : UTC 2016-03-12 03:04:07\r\nTagged date                              : UTC 2016-03-12 03:04:07\r\n\r\nVideo\r\nID                                       : 1\r\nFormat                                   : AVC\r\nFormat/Info                              : Advanced Video Codec\r\nFormat profile                           :   \r\nFormat settings, CABAC                   : Yes\r\nFormat settings, ReFrames                : 4 frames\r\nCodec ID                                 : avc1\r\nCodec ID/Info                            : Advanced Video Coding\r\nDuration                                 : 1h 43mn\r\nBit rate                                 : 3 992 Kbps\r\nWidth                                    : 1 920 pixels\r\nHeight                                   : 1 080 pixels\r\nDisplay aspect ratio                     : 16:9\r\nFrame rate mode                          : Constant\r\nFrame rate                               : 23.976 (24000/1001) fps\r\nColor space                              : YUV\r\nChroma subsampling                       : 4:2:0\r\nBit depth                                : 8 bits\r\nScan type                                : Progressive\r\nBits/(Pixel*Frame)                       : 0.080\r\nStream size                              : 2.89 GiB (94%)\r\nWriting library                          : x264 core 148 r11 a01e339\r\nEncoding settings                        : cabac=1 / ref=4 / deblock=1:0:0 / analyse=0x3:0x113 / me=umh / subme=8 / psy=1 / psy_rd=1.00:0.00 / mixed_ref=1 / me_range=16 / chroma_me=1 / trellis=1 / 8x8dct=1 / cqm=0 / deadzone=21,11 / fast_pskip=1 / chroma_qp_offset=-2 / threads=34 / lookahead_threads=5 / sliced_threads=0 / nr=0 / decimate=1 / interlaced=0 / bluray_compat=0 / stitchable=1 / constrained_intra=0 / bframes=3 / b_pyramid=2 / b_adapt=2 / b_bias=0 / direct=3 / weightb=1 / open_gop=0 / weightp=2 / keyint=infinite / keyint_min=23 / scenecut=40 / intra_refresh=0 / rc_lookahead=50 / rc=crf / mbtree=1 / crf=20.0 / qcomp=0.60 / qpmin=5 / qpmax=69 / qpstep=4 / vbv_maxrate=4950 / vbv_bufsize=13500 / crf_max=0.0 / nal_hrd=none / filler=0 / ip_ratio=1.40 / aq=1:1.00\r\nEncoded date                             : UTC 2016-03-12 03:04:07\r\nTagged date                              : UTC 2016-03-12 03:04:07\r\nColor range                              : Limited\r\nColor primaries                          : BT.709\r\nTransfer characteristics                 : BT.709\r\nMatrix coefficients                      : BT.709\r\n\r\nAudio\r\nID                                       : 2\r\nFormat                                   : AAC\r\nFormat/Info                              : Advanced Audio Codec\r\nFormat profile                           : LC\r\nCodec ID                                 : 40\r\nDuration                                 : 1h 43mn\r\nBit rate mode                            : Variable\r\nBit rate                                 : 256 Kbps\r\nChannel(s)                               : 2 channels\r\nChannel positions                        : Front: L R\r\nSampling rate                            : 48.0 KHz\r\nFrame rate                               : 46.875 fps (1024 spf)\r\nCompression mode                         : Lossy\r\nStream size                              : 190 MiB (6%)\r\nEncoded date                             : UTC 2016-03-12 03:04:07\r\nTagged date                              : UTC 2016-03-12 03:04:07","torrent":{"xt":"urn:btih:97404de872b1e7cf3f175b5fe12ac2871083261f","amp;dn":"Making+A+Killing+-+Guns%2C+Greed%2C+and+The+NRA+1080p+WEBRip","amp;tr":["udp%3A%2F%2Ftracker.leechers-paradise.org%3A6969","udp%3A%2F%2Fzer0day.ch%3A1337","udp%3A%2F%2Fopen.demonii.com%3A1337","udp%3A%2F%2Ftracker.coppersurfer.tk%3A6969","udp%3A%2F%2Fexodus.desync.com%3A6969"],"infoHash":"97404de872b1e7cf3f175b5fe12ac2871083261f","infoHashBuffer":{"type":"Buffer","data":[151,64,77,232,114,177,231,207,63,23,91,95,225,42,194,135,16,131,38,31]},"announce":[],"urlList":[]}}